<?xml version="1.0" encoding="UTF-8" standalone="no"?>
<!DOCTYPE svg PUBLIC "-//W3C//DTD SVG 1.1//EN"
 "http://www.w3.org/Graphics/SVG/1.1/DTD/svg11.dtd">
<!-- Generated by graphviz version 2.40.1 (20161225.0304)
 -->
<!-- Title: dependencies Pages: 1 -->
<svg width="504pt" height="284pt"
 viewBox="0.00 0.00 504.00 284.00" xmlns="http://www.w3.org/2000/svg" xmlns:xlink="http://www.w3.org/1999/xlink">
<g id="graph0" class="graph" transform="scale(1 1) rotate(0) translate(4 280)">
<title>dependencies</title>
<polygon fill="#ffffff" stroke="transparent" points="-4,4 -4,-280 500,-280 500,4 -4,4"/>
<text text-anchor="start" x="227.0091" y="-42.4" font-family="sans-serif" font-weight="bold" font-size="14.00" fill="#000000">Legend</text>
<polygon fill="#ffffb3" stroke="transparent" points="14,-10 14,-30 34,-30 34,-10 14,-10"/>
<text text-anchor="start" x="37.629" y="-15.4" font-family="sans-serif" font-size="14.00" fill="#000000"> &#160;Declarations</text>
<polygon fill="#8dd3c7" stroke="transparent" points="127,-10 127,-30 147,-30 147,-10 127,-10"/>
<text text-anchor="start" x="150.7251" y="-15.4" font-family="sans-serif" font-size="14.00" fill="#000000"> &#160;Module</text>
<polygon fill="#80b1d3" stroke="transparent" points="213,-10 213,-30 233,-30 233,-10 213,-10"/>
<text text-anchor="start" x="236.7812" y="-15.4" font-family="sans-serif" font-size="14.00" fill="#000000"> &#160;Bootstrap</text>
<polygon fill="#fdb462" stroke="transparent" points="310,-10 310,-30 330,-30 330,-10 310,-10"/>
<text text-anchor="start" x="333.6732" y="-15.4" font-family="sans-serif" font-size="14.00" fill="#000000"> &#160;Providers</text>
<polygon fill="#fb8072" stroke="transparent" points="406,-10 406,-30 426,-30 426,-10 406,-10"/>
<text text-anchor="start" x="429.7258" y="-15.4" font-family="sans-serif" font-size="14.00" fill="#000000"> &#160;Exports</text>
<g id="clust1" class="cluster">
<title>cluster_AppModule</title>
<polygon fill="none" stroke="#000000" stroke-dasharray="1,5" points="35.5,-70 35.5,-268 316.5,-268 316.5,-70 35.5,-70"/>
</g>
<g id="clust2" class="cluster">
<title>cluster_AppModule_declarations</title>
<polygon fill="none" stroke="#000000" points="43.5,-78 43.5,-130 308.5,-130 308.5,-78 43.5,-78"/>
</g>
<g id="clust8" class="cluster">
<title>cluster_AppModule_bootstrap</title>
<polygon fill="none" stroke="#000000" points="132.5,-208 132.5,-260 220.5,-260 220.5,-208 132.5,-208"/>
</g>
<g id="clust10" class="cluster">
<title>cluster_LoginPageModule</title>
<polygon fill="none" stroke="#000000" stroke-dasharray="1,5" points="324.5,-143 324.5,-195 460.5,-195 460.5,-143 324.5,-143"/>
</g>
<!-- MyApp -->
<g id="node1" class="node">
<title>MyApp</title>
<polygon fill="#ffffb3" stroke="#000000" points="206.0529,-122 146.9471,-122 146.9471,-86 206.0529,-86 206.0529,-122"/>
<text text-anchor="middle" x="176.5" y="-99.8" font-family="Times,serif" font-size="14.00" fill="#000000">MyApp</text>
</g>
<!-- AppModule -->
<g id="node4" class="node">
<title>AppModule</title>
<polygon fill="#8dd3c7" stroke="#000000" points="218.1571,-187 215.1571,-191 194.1571,-191 191.1571,-187 134.8429,-187 134.8429,-151 218.1571,-151 218.1571,-187"/>
<text text-anchor="middle" x="176.5" y="-164.8" font-family="Times,serif" font-size="14.00" fill="#000000">AppModule</text>
</g>
<!-- MyApp&#45;&gt;AppModule -->
<g id="edge1" class="edge">
<title>MyApp&#45;&gt;AppModule</title>
<path fill="none" stroke="#000000" d="M176.5,-122.1061C176.5,-122.1061 176.5,-140.991 176.5,-140.991"/>
<polygon fill="#000000" stroke="#000000" points="173.0001,-140.9909 176.5,-150.991 180.0001,-140.991 173.0001,-140.9909"/>
</g>
<!-- HomePage -->
<g id="node2" class="node">
<title>HomePage</title>
<polygon fill="#ffffb3" stroke="#000000" points="129.4248,-122 51.5752,-122 51.5752,-86 129.4248,-86 129.4248,-122"/>
<text text-anchor="middle" x="90.5" y="-99.8" font-family="Times,serif" font-size="14.00" fill="#000000">HomePage</text>
</g>
<!-- HomePage&#45;&gt;AppModule -->
<g id="edge2" class="edge">
<title>HomePage&#45;&gt;AppModule</title>
<path fill="none" stroke="#000000" d="M129.5575,-104C136.038,-104 140.6981,-104 140.6981,-104 140.6981,-104 140.6981,-140.8939 140.6981,-140.8939"/>
<polygon fill="#000000" stroke="#000000" points="137.1982,-140.8938 140.6981,-150.8939 144.1982,-140.8939 137.1982,-140.8938"/>
</g>
<!-- LoginPage -->
<g id="node3" class="node">
<title>LoginPage</title>
<polygon fill="#ffffb3" stroke="#000000" points="300.6558,-122 224.3442,-122 224.3442,-86 300.6558,-86 300.6558,-122"/>
<text text-anchor="middle" x="262.5" y="-99.8" font-family="Times,serif" font-size="14.00" fill="#000000">LoginPage</text>
</g>
<!-- LoginPage&#45;&gt;AppModule -->
<g id="edge3" class="edge">
<title>LoginPage&#45;&gt;AppModule</title>
<path fill="none" stroke="#000000" d="M224.1981,-104C217.3274,-104 212.3019,-104 212.3019,-104 212.3019,-104 212.3019,-140.8939 212.3019,-140.8939"/>
<polygon fill="#000000" stroke="#000000" points="208.802,-140.8938 212.3019,-150.8939 215.802,-140.8939 208.802,-140.8938"/>
</g>
<!-- LoginPageModule -->
<g id="node6" class="node">
<title>LoginPageModule</title>
<polygon fill="#8dd3c7" stroke="#000000" points="452.705,-187 449.705,-191 428.705,-191 425.705,-187 332.295,-187 332.295,-151 452.705,-151 452.705,-187"/>
<text text-anchor="middle" x="392.5" y="-164.8" font-family="Times,serif" font-size="14.00" fill="#000000">LoginPageModule</text>
</g>
<!-- LoginPage&#45;&gt;LoginPageModule -->
<g id="edge5" class="edge">
<title>LoginPage&#45;&gt;LoginPageModule</title>
<path fill="none" stroke="#000000" d="M262.5,-122.1061C262.5,-141.3391 262.5,-169 262.5,-169 262.5,-169 322.067,-169 322.067,-169"/>
<polygon fill="#000000" stroke="#000000" points="322.067,-172.5001 332.067,-169 322.0669,-165.5001 322.067,-172.5001"/>
</g>
<!-- IonicApp  -->
<g id="node5" class="node">
<title>IonicApp </title>
<polygon fill="#80b1d3" stroke="#000000" points="212.8734,-252 140.1266,-252 140.1266,-216 212.8734,-216 212.8734,-252"/>
<text text-anchor="middle" x="176.5" y="-229.8" font-family="Times,serif" font-size="14.00" fill="#000000">IonicApp </text>
</g>
<!-- AppModule&#45;&gt;IonicApp  -->
<g id="edge4" class="edge">
<title>AppModule&#45;&gt;IonicApp </title>
<path fill="none" stroke="#000000" stroke-dasharray="1,5" d="M176.5,-187.1061C176.5,-187.1061 176.5,-205.991 176.5,-205.991"/>
<polygon fill="#000000" stroke="#000000" points="173.0001,-205.9909 176.5,-215.991 180.0001,-205.991 173.0001,-205.9909"/>
</g>
</g>
</svg>
